#define max_toggled_width 16
#define max_toggled_height 16
static unsigned char max_toggled_bits[] = {
   0x00, 0x00, 0x00, 0x00, 0x00, 0x00, 0x80, 0x1f, 0x00, 0x10, 0xf8, 0x17,
   0xf8, 0x17, 0x18, 0x16, 0x18, 0x16, 0x18, 0x16, 0x18, 0x06, 0xf8, 0x07,
   0xf8, 0x07, 0x00, 0x00, 0x00, 0x00, 0x00, 0x00 };
